<?xml version="1.0" encoding="UTF-8" standalone="no"?>
<svg
   viewBox="0 0 78.370308 60.339998"
   version="1.1"
   id="svg882"
   sodipodi:docname="libera.svg"
   width="78.370308"
   height="60.34"
   inkscape:version="1.1.1 (3bf5ae0d25, 2021-09-20)"
   xmlns:inkscape="http://www.inkscape.org/namespaces/inkscape"
   xmlns:sodipodi="http://sodipodi.sourceforge.net/DTD/sodipodi-0.dtd"
   xmlns="http://www.w3.org/2000/svg"
   xmlns:svg="http://www.w3.org/2000/svg">
  <defs
     id="defs886" />
  <sodipodi:namedview
     id="namedview884"
     pagecolor="#ffffff"
     bordercolor="#666666"
     borderopacity="1.0"
     inkscape:pageshadow="2"
     inkscape:pageopacity="0.0"
     inkscape:pagecheckerboard="0"
     showgrid="false"
     fit-margin-top="0"
     fit-margin-left="0"
     fit-margin-right="0"
     fit-margin-bottom="0"
     inkscape:zoom="4.7992569"
     inkscape:cx="15.419054"
     inkscape:cy="30.213011"
     inkscape:window-width="2220"
     inkscape:window-height="1438"
     inkscape:window-x="18"
     inkscape:window-y="18"
     inkscape:window-maximized="1"
     inkscape:current-layer="svg882" />
  <path
     d="m 31.600309,0.04 h -0.01 a 32.2,32.2 0 0 0 -0.65,0.14 l -0.22,0.04 a 39.48,39.48 0 0 0 -0.43,0.1 l -0.21,0.05 a 39.35,39.35 0 0 0 -5.68,1.8 l -0.12,0.06 11.26,37.33 0.47,-0.55 1.26,-1.48 z m 14.98,-0.04 -4.1,31.45 3.32,-3.88 0.66,1.05 7.36,-26.51 -0.18,-0.07 a 37.97,37.97 0 0 0 -6.55,-1.94 39.84,39.84 0 0 0 -0.43,-0.09 z m -35.33,10.9 a 34.93,34.93 0 0 0 -3.0299996,3.42 41.1,41.1 0 0 0 -1.8,2.48 v 0.02 l 21.5199996,23.51 1.62,-2.12 0.08,0.04 z m 55.45,-0.44 -15.91,25.1 1.81,2.9 19.26,-21.8 a 35.29,35.29 0 0 0 -2.9,-3.82 38.85,38.85 0 0 0 -2.26,-2.38 z M 0.72030936,30.68 A 38.23,38.23 0 0 0 3.0935577e-4,38.22 L 22.940309,46.84 l 1.79,-2.33 z m 77.06999964,0.67 -21.85,12.49 1.72,2.75 20.7,-7.55 v -0.1 a 22.66,22.66 0 0 0 0.01,-0.66 v -0.44 -0.22 -0.14 -0.22 l -0.01,-0.21 v -0.22 l -0.01,-0.22 -0.01,-0.22 -0.01,-0.22 -0.01,-0.22 -0.02,-0.21 -0.01,-0.22 -0.02,-0.22 -0.01,-0.22 -0.02,-0.21 -0.02,-0.22 -0.02,-0.22 -0.02,-0.22 -0.02,-0.21 a 31.66,31.66 0 0 0 -0.37,-2.6 V 31.36 Z M 3.1603094,53.31 a 39.78,39.78 0 0 0 3.96,7.03 h 0.01 l 6.7299996,-1.48 0.14,-0.18 h -0.16 l 4.18,-5.44 z m 58.8299996,0.21 3.24,5.39 6.05,1.36 0.05,-0.06 a 36.02,36.02 0 0 0 2.53,-4.1 37.2,37.2 0 0 0 1.15,-2.37 z"
     fill="#1095c1"
     paint-order="markers fill stroke"
     id="path872" />
  <g
     fill="#1095c1"
     id="g880"
     transform="translate(-9.2596906,-9.26)">
    <path
       style="line-height:normal;font-variant-ligatures:normal;font-variant-position:normal;font-variant-caps:normal;font-variant-numeric:normal;font-variant-alternates:normal;font-variant-east-asian:normal;font-feature-settings:normal;font-variation-settings:normal;text-indent:0;text-align:start;text-decoration-line:none;text-decoration-style:solid;text-decoration-color:#1095c1;text-transform:none;text-orientation:mixed;white-space:normal;shape-padding:0;shape-margin:0;inline-size:0;isolation:auto;mix-blend-mode:normal;solid-color:#1095c1;solid-opacity:1"
       d="M 55.53,35.83 44.12,48.86 38.9,46.56 21.92,68.38 h 1.48 l 15.88,-20.32 5.17,2.29 10.9,-12.45 c 6.04,10.27 12.55,20.15 18.47,30.49 h 1.48 z"
       color="#1095c1"
       font-weight="400"
       font-family="sans-serif"
       overflow="visible"
       id="path874" />
    <path
       style="line-height:normal;font-variant-ligatures:normal;font-variant-position:normal;font-variant-caps:normal;font-variant-numeric:normal;font-variant-alternates:normal;font-variant-east-asian:normal;font-feature-settings:normal;font-variation-settings:normal;text-indent:0;text-align:start;text-decoration-line:none;text-decoration-style:solid;text-decoration-color:#1095c1;text-transform:none;text-orientation:mixed;white-space:normal;shape-padding:0;shape-margin:0;inline-size:0;isolation:auto;mix-blend-mode:normal;solid-color:#1095c1;solid-opacity:1"
       d="M 55.32,39.73 44.72,51.88 39.55,49.73 24.91,68.37 h 1.62 l 13.4,-17.15 5.14,2.13 10.07,-11.55 15.84,26.62 1.56,-0.03 z"
       color="#1095c1"
       font-weight="400"
       font-family="sans-serif"
       overflow="visible"
       id="path876" />
    <path
       d="m 28.1,68.36 12.23,-15.59 5.24,2.13 9.51,-10.92 14.28,24.4 z"
       id="path878" />
  </g>
</svg>
