<?xml version="1.0" encoding="UTF-8"?>
<svg width="432px" height="63px" viewBox="0 0 432 63" version="1.1" xmlns="http://www.w3.org/2000/svg" xmlns:xlink="http://www.w3.org/1999/xlink">
    <!-- Generator: Sketch 59.1 (86144) - https://sketch.com -->
    <title>REFLEX</title>
    <desc>Created with Sketch.</desc>
    <g id="REFLEX" stroke="none" stroke-width="1" fill="none" fill-rule="evenodd">
        <polyline id="Fill-4" fill="#000000" points="409.955 31.052 388.397 62.128 371.767 62.128 401.639 19.063 409.955 31.052"></polyline>
        <polyline id="Fill-5" fill="#8D68FD" points="431.5 0 418.282 19.063 401.639 19.063 414.869 0 431.5 0"></polyline>
        <polyline id="Fill-6" fill="#000000" points="371.779 0 414.882 62.128 431.512 62.128 388.409 0 371.779 0"></polyline>
        <polyline id="Fill-7" fill="#000000" points="297.823 62.128 345.12 62.128 345.12 49.966 311.4 49.966 311.4 37.145 345.12 37.145 345.12 24.983 311.4 24.983 311.4 12.162 345.12 12.162 345.12 0 297.823 0 297.823 62.128"></polyline>
        <path d="M-2.84217094e-14,62.128 L13.665,62.128 L13.665,42.246 L24.4,42.246 L37.717,62.128 L53.69,62.128 L38.511,39.938 C46.417,37.009 51.828,30.716 51.828,20.676 L51.828,20.502 C51.828,14.645 49.966,9.767 46.504,6.304 C42.421,2.221 36.29,0 28.397,0 L-2.84217094e-14,0 L-2.84217094e-14,62.128 Z M13.665,30.183 L13.665,12.336 L27.242,12.336 C33.895,12.336 37.978,15.352 37.978,21.21 L37.978,21.396 C37.978,26.633 34.168,30.183 27.503,30.183 L13.665,30.183 L13.665,30.183 Z" id="Fill-8" fill="#000000"></path>
        <polyline id="Fill-9" fill="#000000" points="152.492 62.128 166.157 62.128 166.157 38.076 199.79 38.076 199.79 25.653 166.157 25.653 166.157 12.423 199.79 12.423 199.79 0 152.492 0 152.492 62.128"></polyline>
        <polyline id="Fill-10" fill="#000000" points="226.498 62.128 271.139 62.128 271.139 49.705 240.162 49.705 240.162 0 226.498 0 226.498 62.128"></polyline>
        <polyline id="Fill-11" fill="#000000" points="78.511 62.128 125.809 62.128 125.809 49.966 92.089 49.966 92.089 37.145 125.809 37.145 125.809 24.983 92.089 24.983 92.089 12.162 125.809 12.162 125.809 0 78.511 0 78.511 62.128"></polyline>
    </g>
</svg>