<svg>
    <path d="M0.63,5.618 L6.006,3.364 L6.482,4.876 L2.562,6.402 L6.482,7.928 L6.006,9.44 L0.63,7.172 L0.63,5.618 Z M9.702,9.874 C9.11399706,9.81799972 8.64033513,9.72466732 8.281,9.594 C7.92166487,9.46333268 7.65333422,9.34666718 7.476,9.244 L8.008,7.872 C8.30666816,8.0120007 8.65666466,8.14033275 9.058,8.257 C9.45933534,8.37366725 9.88399776,8.432 10.332,8.432 C10.8546693,8.432 11.2186656,8.36433401 11.424,8.229 C11.6293344,8.09366599 11.732,7.88133478 11.732,7.592 C11.732,7.42399916 11.6923337,7.27933394 11.613,7.158 C11.5336663,7.03666606 11.4170008,6.92700049 11.263,6.829 C11.1089992,6.73099951 10.9200011,6.64233373 10.696,6.563 L9.94,6.29 C9.66933198,6.1966662 9.40333464,6.08933394 9.142,5.968 C8.88066536,5.84666606 8.64733436,5.69966753 8.442,5.527 C8.23666564,5.35433247 8.07100063,5.14433457 7.945,4.897 C7.81899937,4.64966543 7.756,4.34400182 7.756,3.98 C7.756,3.71866536 7.79099965,3.46666788 7.861,3.224 C7.93100035,2.98133212 8.04299923,2.75733436 8.197,2.552 C8.35100077,2.34666564 8.55399874,2.16700077 8.806,2.013 C9.05800126,1.85899923 9.36599818,1.74000042 9.73,1.656 L9.73,0.298 L11.326,0.298 L11.326,1.586 C11.7553355,1.62333352 12.135665,1.6886662 12.467,1.782 C12.798335,1.8753338 13.0573324,1.95933296 13.244,2.034 L12.852,3.476 C12.581332,3.36399944 12.2616685,3.26366711 11.893,3.175 C11.5243315,3.08633289 11.144002,3.042 10.752,3.042 C10.3039978,3.042 9.99366753,3.12133254 9.821,3.28 C9.64833247,3.43866746 9.562,3.62533226 9.562,3.84 C9.562,3.98933408 9.59233303,4.11299951 9.653,4.211 C9.71366697,4.30900049 9.80699937,4.39533296 9.933,4.47 C10.0590006,4.54466704 10.2106658,4.61699965 10.388,4.687 L10.6784999,4.79724997 C10.7834996,4.83574988 10.8966661,4.87599979 11.018,4.918 C11.3820018,5.0580007 11.7179985,5.20499923 12.026,5.359 C12.3340015,5.51300077 12.5999989,5.69033233 12.824,5.891 C13.0480011,6.09166767 13.2229994,6.32733198 13.349,6.598 C13.4750006,6.86866802 13.538,7.18599818 13.538,7.55 C13.538,7.80200126 13.500667,8.05166543 13.426,8.299 C13.351333,8.54633457 13.2276675,8.77499895 13.055,8.985 C12.8823325,9.19500105 12.6536681,9.37699923 12.369,9.531 C12.0843319,9.68500077 11.7273355,9.79466634 11.298,9.86 L11.298,11.358 L9.702,11.358 L9.702,9.874 Z" fill="#FD6868"></path>
</svg>