<svg>
    <path d="M2.506,5.474 C2.506,5.88466872 2.38000126,6.19733226 2.128,6.412 C1.87599874,6.62666774 1.5866683,6.734 1.26,6.734 C1.09199916,6.734 0.93333408,6.70600028 0.784,6.65 C0.63466592,6.59399972 0.50166725,6.51233387 0.385,6.405 C0.26833275,6.29766613 0.17500035,6.16700077 0.105,6.013 C0.03499965,5.85899923 0,5.67933436 0,5.474 C0,5.27799902 0.03499965,5.10300077 0.105,4.949 C0.17500035,4.79499923 0.26833275,4.66666718 0.385,4.564 C0.50166725,4.46133282 0.63466592,4.38200028 0.784,4.326 C0.93333408,4.26999972 1.09199916,4.242 1.26,4.242 C1.5866683,4.242 1.87599874,4.34933226 2.128,4.564 C2.38000126,4.77866774 2.506,5.08199804 2.506,5.474 Z M2.506,1.232 C2.506,1.64266872 2.38000126,1.95533226 2.128,2.17 C1.87599874,2.38466774 1.5866683,2.492 1.26,2.492 C1.09199916,2.492 0.93333408,2.46400028 0.784,2.408 C0.63466592,2.35199972 0.50166725,2.27033387 0.385,2.163 C0.26833275,2.05566613 0.17500035,1.92500077 0.105,1.771 C0.03499965,1.61699923 0,1.43733436 0,1.232 C0,1.03599902 0.03499965,0.86100077 0.105,0.707 C0.17500035,0.55299923 0.26833275,0.42466718 0.385,0.322 C0.50166725,0.21933282 0.63466592,0.14000028 0.784,0.084 C0.93333408,0.02799972 1.09199916,0 1.26,0 C1.5866683,0 1.87599874,0.10733226 2.128,0.322 C2.38000126,0.53666774 2.506,0.83999804 2.506,1.232 Z M9.506,5.474 C9.506,5.88466872 9.38000126,6.19733226 9.128,6.412 C8.87599874,6.62666774 8.5866683,6.734 8.26,6.734 C8.09199916,6.734 7.93333408,6.70600028 7.784,6.65 C7.63466592,6.59399972 7.50166725,6.51233387 7.385,6.405 C7.26833275,6.29766613 7.17500035,6.16700077 7.105,6.013 C7.03499965,5.85899923 7,5.67933436 7,5.474 C7,5.27799902 7.03499965,5.10300077 7.105,4.949 C7.17500035,4.79499923 7.26833275,4.66666718 7.385,4.564 C7.50166725,4.46133282 7.63466592,4.38200028 7.784,4.326 C7.93333408,4.26999972 8.09199916,4.242 8.26,4.242 C8.5866683,4.242 8.87599874,4.34933226 9.128,4.564 C9.38000126,4.77866774 9.506,5.08199804 9.506,5.474 Z M9.506,1.232 C9.506,1.64266872 9.38000126,1.95533226 9.128,2.17 C8.87599874,2.38466774 8.5866683,2.492 8.26,2.492 C8.09199916,2.492 7.93333408,2.46400028 7.784,2.408 C7.63466592,2.35199972 7.50166725,2.27033387 7.385,2.163 C7.26833275,2.05566613 7.17500035,1.92500077 7.105,1.771 C7.03499965,1.61699923 7,1.43733436 7,1.232 C7,1.03599902 7.03499965,0.86100077 7.105,0.707 C7.17500035,0.55299923 7.26833275,0.42466718 7.385,0.322 C7.50166725,0.21933282 7.63466592,0.14000028 7.784,0.084 C7.93333408,0.02799972 8.09199916,0 8.26,0 C8.5866683,0 8.87599874,0.10733226 9.128,0.322 C9.38000126,0.53666774 9.506,0.83999804 9.506,1.232 Z"></path>
</svg>