<svg>
    <path d="M2.156,0 L2.156,2.296 L2.15075003,2.77375013 C2.14725004,2.92424976 2.14200003,3.06599934 2.135,3.199 C2.12099993,3.46500133 2.10233345,3.72166543 2.079,3.969 C2.05566655,4.21633457 2.02766683,4.46133212 1.995,4.704 L1.9265556,5.22666627 C1.91462969,5.31999947 1.90244451,5.41644395 1.89,5.516 L0.462,5.516 C0.4153331,5.21733184 0.37566683,4.94433457 0.343,4.697 C0.31033317,4.44966543 0.28000014,4.20466788 0.252,3.962 C0.22399986,3.71933212 0.20300007,3.46500133 0.189,3.199 C0.178499947,2.999499 0.171937474,2.78031295 0.16931249,2.54143802 L0.168,0 L2.156,0 Z M2.324,7.672 C2.324,8.03600182 2.20500119,8.32066564 1.967,8.526 C1.72899881,8.73133436 1.46066816,8.834 1.162,8.834 C0.86333184,8.834 0.59500119,8.73133436 0.357,8.526 C0.11899881,8.32066564 0,8.03600182 0,7.672 C0,7.31733156 0.11899881,7.03733436 0.357,6.832 C0.59500119,6.62666564 0.86333184,6.524 1.162,6.524 C1.46066816,6.524 1.72899881,6.62666564 1.967,6.832 C2.20500119,7.03733436 2.324,7.31733156 2.324,7.672 Z M9.156,0 L9.156,2.296 L9.15075003,2.77375013 C9.14725004,2.92424976 9.14200003,3.06599934 9.135,3.199 C9.12099993,3.46500133 9.10233345,3.72166543 9.079,3.969 C9.05566655,4.21633457 9.02766683,4.46133212 8.995,4.704 L8.9265556,5.22666627 C8.91462969,5.31999947 8.90244451,5.41644395 8.89,5.516 L7.462,5.516 C7.4153331,5.21733184 7.37566683,4.94433457 7.343,4.697 C7.31033317,4.44966543 7.28000014,4.20466788 7.252,3.962 C7.22399986,3.71933212 7.20300007,3.46500133 7.189,3.199 C7.17849995,2.999499 7.17193747,2.78031295 7.16931249,2.54143802 L7.168,0 L9.156,0 Z M9.324,7.672 C9.324,8.03600182 9.20500119,8.32066564 8.967,8.526 C8.72899881,8.73133436 8.46066816,8.834 8.162,8.834 C7.86333184,8.834 7.59500119,8.73133436 7.357,8.526 C7.11899881,8.32066564 7,8.03600182 7,7.672 C7,7.31733156 7.11899881,7.03733436 7.357,6.832 C7.59500119,6.62666564 7.86333184,6.524 8.162,6.524 C8.46066816,6.524 8.72899881,6.62666564 8.967,6.832 C9.20500119,7.03733436 9.324,7.31733156 9.324,7.672 Z"></path>
</svg>