<svg>
    <path d="M0.63,4.618 L6.006,2.364 L6.482,3.876 L2.562,5.402 L6.482,6.928 L6.006,8.44 L0.63,6.172 L0.63,4.618 Z M13.552,8.23 C13.2999987,8.33266718 13.008335,8.40966641 12.677,8.461 C12.345665,8.51233359 12.0586679,8.538 11.816,8.538 C11.4613316,8.538 11.1323349,8.48433387 10.829,8.377 C10.5256652,8.26966613 10.2620011,8.10166781 10.038,7.873 C9.81399888,7.64433219 9.63900063,7.34566851 9.513,6.977 C9.38699937,6.60833149 9.324,6.15800266 9.324,5.626 C9.324,5.23399804 9.35899965,4.86533506 9.429,4.52 C9.49900035,4.17466494 9.61799916,3.87366795 9.786,3.617 C9.95400084,3.36033205 10.1709987,3.15733408 10.437,3.008 C10.7030013,2.85866592 11.031998,2.784 11.424,2.784 C11.6013342,2.784 11.8206654,2.8073331 12.082,2.854 L12.082,2.63 C12.082,2.27533156 11.9700011,1.97433457 11.746,1.727 C11.5219989,1.47966543 11.1953355,1.356 10.766,1.356 C10.4579985,1.356 10.1663347,1.42133268 9.891,1.552 C9.61566529,1.68266732 9.37766767,1.9113317 9.177,2.238 C8.97633233,2.5646683 8.81766725,3.00099727 8.701,3.547 C8.58433275,4.09300273 8.526,4.78132918 8.526,5.612 C8.526,6.2653366 8.57499951,6.84399748 8.673,7.348 C8.77100049,7.85200252 8.93899881,8.27433163 9.177,8.615 C9.41500119,8.95566837 9.73233135,9.21466578 10.129,9.392 C10.5256687,9.56933422 11.0179971,9.658 11.606,9.658 C12.0446689,9.658 12.3899987,9.6346669 12.642,9.588 L12.8644449,9.54444437 C12.9930374,9.51748144 13.082222,9.49466676 13.132,9.476 L13.286,10.694 L12.9873334,10.7593333 C12.9406669,10.7686666 12.8955558,10.7772222 12.852,10.785 C12.7213327,10.8083334 12.5906673,10.8269999 12.46,10.841 C12.3293327,10.8550001 12.196334,10.8666666 12.061,10.876 L11.7685558,10.8884445 C11.7161855,10.8894815 11.6620003,10.89 11.606,10.89 C10.9899969,10.89 10.4160027,10.8060008 9.884,10.638 C9.35199734,10.4699992 8.89233527,10.1783354 8.505,9.763 C8.11766473,9.34766459 7.81200112,8.79700343 7.588,8.111 C7.36399888,7.42499657 7.252,6.56400518 7.252,5.528 C7.252,4.51999496 7.34766571,3.67300343 7.539,2.987 C7.73033429,2.30099657 7.9893317,1.74566879 8.316,1.321 C8.6426683,0.89633121 9.0159979,0.59300091 9.436,0.411 C9.8560021,0.22899909 10.299331,0.138 10.766,0.138 C11.1486686,0.138 11.5079983,0.19633275 11.844,0.313 C12.1800017,0.42966725 12.4739987,0.61399874 12.726,0.866 C12.9780013,1.11800126 13.1786659,1.44699797 13.328,1.853 C13.4773341,2.25900203 13.552,2.75133044 13.552,3.33 L13.552,8.23 Z M10.794,5.542 C10.794,5.71933422 10.8056666,5.9013324 10.829,6.088 C10.8523335,6.2746676 10.8966663,6.44266592 10.962,6.592 C11.0273337,6.74133408 11.1183328,6.86499951 11.235,6.963 C11.3516673,7.06100049 11.5033324,7.11 11.69,7.11 C11.8113339,7.11 11.9419993,7.09600014 12.082,7.068 L12.082,4.268 C12.007333,4.24933324 11.9373337,4.23533338 11.872,4.226 C11.8066663,4.21666662 11.7413337,4.212 11.676,4.212 C11.4986658,4.212 11.3540006,4.25166627 11.242,4.331 C11.1299994,4.41033373 11.0413337,4.51299937 10.976,4.639 C10.9106663,4.76500063 10.8640001,4.90733254 10.836,5.066 C10.8079999,5.22466746 10.794,5.38333254 10.794,5.542 Z M20.426,6.186 L15.05,8.454 L14.56,6.942 L18.494,5.416 L14.56,3.89 L15.05,2.378 L20.426,4.632 L20.426,6.186 Z"></path>
</svg>