<svg>
    <path d="M0.63,4.618 L6.006,2.364 L6.482,3.876 L2.562,5.402 L6.482,6.928 L6.006,8.44 L0.63,6.172 L0.63,4.618 Z M10.528,3.764 C10.4999999,3.87600056 10.4580003,4.01133254 10.402,4.17 L10.227,4.646 L10.227,4.646 C10.166333,4.80466746 10.1010004,4.9539993 10.031,5.094 C9.96099965,5.2340007 9.89333366,5.3506662 9.828,5.444 L9.562,5.794 L8.246,4.856 L8.512,4.506 C8.57733366,4.4126662 8.66833275,4.31000056 8.785,4.198 C8.90166725,4.08599944 9.02299937,3.97400056 9.149,3.862 C9.27500063,3.74999944 9.40333268,3.64500049 9.534,3.547 L9.77044438,3.37277781 C9.80570357,3.34737046 9.83888873,3.32377789 9.87,3.302 L9.443,3.302 C9.27966585,3.302 9.11400084,3.29500007 8.946,3.281 C8.77799916,3.26699993 8.61466746,3.24600014 8.456,3.218 C8.29733254,3.18999986 8.16666718,3.15733352 8.064,3.12 L7.644,2.98 L8.162,1.454 L8.582,1.58 C8.68466718,1.61733352 8.8059993,1.67566627 8.946,1.755 C9.0860007,1.83433373 9.2259993,1.9206662 9.366,2.014 L9.779,2.294 L9.779,2.294 C9.91433401,2.3873338 10.0286662,2.47133296 10.122,2.546 L9.996,2.147 L9.996,2.147 C9.9493331,1.99299923 9.90500021,1.83200084 9.863,1.664 C9.82099979,1.49599916 9.78600014,1.33266746 9.758,1.174 C9.72999986,1.01533254 9.716,0.88000056 9.716,0.768 L9.716,0.334 L11.34,0.334 L11.34,0.768 C11.34,0.88000056 11.3260001,1.01533254 11.298,1.174 C11.2699999,1.33266746 11.2350002,1.49599916 11.193,1.664 C11.1509998,1.83200084 11.1043336,1.99299923 11.053,2.147 L10.92,2.546 L11.1377776,2.3966668 L11.1377776,2.3966668 L11.27,2.308 C11.4100007,2.2146662 11.5523326,2.12366711 11.697,2.035 C11.8416674,1.94633289 11.9839993,1.86466704 12.124,1.79 C12.2640007,1.71533296 12.3899994,1.65933352 12.502,1.622 L12.908,1.482 L13.412,3.036 L12.992,3.162 C12.8799994,3.19933352 12.7446675,3.22733324 12.586,3.246 C12.4273325,3.26466676 12.2640008,3.28099993 12.096,3.295 C11.9279992,3.30900007 11.7623342,3.316 11.599,3.316 L11.172,3.316 C11.2746672,3.38133366 11.3913327,3.46299951 11.522,3.561 C11.6526673,3.65900049 11.7833327,3.76166613 11.914,3.869 C12.0446673,3.97633387 12.1659994,4.08599944 12.278,4.198 C12.352667,4.27266704 12.4169631,4.34318523 12.4708889,4.40955547 L12.81,4.856 L11.494,5.808 L11.242,5.458 C11.1766663,5.3646662 11.1090004,5.2480007 11.039,5.108 C10.9689997,4.9679993 10.9013337,4.81633415 10.836,4.653 L10.74325,4.41149998 L10.74325,4.41149998 L10.661,4.177 C10.6096664,4.02299923 10.5653335,3.88533394 10.528,3.764 Z M20.426,6.186 L15.05,8.454 L14.56,6.942 L18.494,5.416 L14.56,3.89 L15.05,2.378 L20.426,4.632 L20.426,6.186 Z"></path>
</svg>