<svg>
    <path d="M1.596,6.216 C1.596,7.36400574 1.85033079,8.36032911 2.359,9.205 C2.86766921,10.0496709 3.56999552,10.7333307 4.466,11.256 L3.668,12.32 C2.39866032,11.6199965 1.47000294,10.7473386 0.882,9.702 C0.29399706,8.65666144 0,7.49467306 0,6.216 C0,4.92799356 0.3033303,3.74500539 0.91,2.667 C1.5166697,1.58899461 2.45466032,0.7000035 3.724,0 L4.522,1.064 C3.62599552,1.58666928 2.91433597,2.28666228 2.387,3.164 C1.85966403,4.04133772 1.596,5.05866088 1.596,6.216 Z M9.8,6.216 C9.8,5.05866088 9.53633597,4.04133772 9.009,3.164 C8.48166403,2.28666228 7.77000448,1.58666928 6.874,1.064 L7.672,0 C8.94133968,0.7000035 9.8793303,1.58899461 10.486,2.667 C11.0926697,3.74500539 11.396,4.92799356 11.396,6.216 C11.396,7.49467306 11.1020029,8.65666144 10.514,9.702 C9.92599706,10.7473386 8.99733968,11.6199965 7.728,12.32 L6.93,11.256 C7.82600448,10.7333307 8.52833079,10.0496709 9.037,9.205 C9.54566921,8.36032911 9.8,7.36400574 9.8,6.216 Z"></path>
</svg>