<svg>
    <path d="M5.11,9 C5.00733282,8.72933198 4.89533394,8.48200112 4.774,8.258 C4.45666508,8.5380014 4.13000168,8.75033261 3.794,8.895 C3.45799832,9.03966739 3.1266683,9.112 2.8,9.112 C2.3799979,9.112 2.01366823,9.04666732 1.701,8.916 C1.38833177,8.78533268 1.12700105,8.61033443 0.917,8.391 C0.70699895,8.17166557 0.55066718,7.91733478 0.448,7.628 C0.34533282,7.33866522 0.294,7.03533492 0.294,6.718 C0.294,6.26999776 0.40833219,5.84300203 0.637,5.437 C0.86566781,5.03099797 1.20866438,4.6880014 1.666,4.408 C1.44199888,4.09999846 1.25766739,3.77800168 1.113,3.442 C0.96833261,3.10599832 0.896,2.75600182 0.896,2.392 C0.896,2.0186648 0.96133268,1.68966809 1.092,1.405 C1.22266732,1.12033191 1.39533226,0.8846676 1.61,0.698 C1.82466774,0.5113324 2.06499867,0.3713338 2.331,0.278 C2.59700133,0.1846662 2.8699986,0.138 3.15,0.138 C3.41133464,0.138 3.66799874,0.17999958 3.92,0.264 C4.17200126,0.34800042 4.39599902,0.47166585 4.592,0.635 C4.78800098,0.79833415 4.94666606,1.00366543 5.068,1.251 C5.18933394,1.49833457 5.25,1.7853317 5.25,2.112 C5.25,2.56000224 5.11466802,2.99633121 4.844,3.421 C4.57333198,3.84566879 4.14866956,4.20733184 3.57,4.506 L3.85699996,4.84549998 L3.85699996,4.84549998 L4.158,5.192 C4.36333436,5.4253345 4.57333226,5.66333212 4.788,5.906 C4.91866732,5.42999762 4.98866662,4.8653366 4.998,4.212 L6.426,4.394 C6.41666662,4.91666928 6.34900063,5.40199776 6.223,5.85 C6.09699937,6.29800224 5.93600098,6.70399818 5.74,7.068 C5.96400112,7.37600154 6.16466578,7.6933317 6.342,8.02 C6.51933422,8.3466683 6.6546662,8.6733317 6.748,9 L5.11,9 Z M4.088,7.25 C3.82666536,6.9233317 3.5560014,6.60600154 3.276,6.298 L2.45,5.388 L2.45,5.388 C2.24466564,5.5280007 2.07900063,5.69833233 1.953,5.899 C1.82699937,6.09966767 1.764,6.34466522 1.764,6.634 C1.764,6.95133492 1.84566585,7.2266655 2.009,7.46 C2.17233415,7.6933345 2.44999804,7.81 2.842,7.81 C3.05666774,7.81 3.27133226,7.76800042 3.486,7.684 C3.70066774,7.59999958 3.9013324,7.45533436 4.088,7.25 Z M2.38,2.308 C2.38,2.51333436 2.42199958,2.72099895 2.506,2.931 C2.59000042,3.14100105 2.70666592,3.35799888 2.856,3.582 C3.15466816,3.41399916 3.38333254,3.19233471 3.542,2.917 C3.70066746,2.64166529 3.78,2.37800126 3.78,2.126 C3.78,1.88333212 3.72166725,1.69900063 3.605,1.573 C3.48833275,1.44699937 3.3366676,1.384 3.15,1.384 C2.9166655,1.384 2.7300007,1.46333254 2.59,1.622 C2.4499993,1.78066746 2.38,2.00933184 2.38,2.308 Z M12.11,9 C12.0073328,8.72933198 11.8953339,8.48200112 11.774,8.258 C11.4566651,8.5380014 11.1300017,8.75033261 10.794,8.895 C10.4579983,9.03966739 10.1266683,9.112 9.8,9.112 C9.3799979,9.112 9.01366823,9.04666732 8.701,8.916 C8.38833177,8.78533268 8.12700105,8.61033443 7.917,8.391 C7.70699895,8.17166557 7.55066718,7.91733478 7.448,7.628 C7.34533282,7.33866522 7.294,7.03533492 7.294,6.718 C7.294,6.26999776 7.40833219,5.84300203 7.637,5.437 C7.86566781,5.03099797 8.20866438,4.6880014 8.666,4.408 C8.44199888,4.09999846 8.25766739,3.77800168 8.113,3.442 C7.96833261,3.10599832 7.896,2.75600182 7.896,2.392 C7.896,2.0186648 7.96133268,1.68966809 8.092,1.405 C8.22266732,1.12033191 8.39533226,0.8846676 8.61,0.698 C8.82466774,0.5113324 9.06499867,0.3713338 9.331,0.278 C9.59700133,0.1846662 9.8699986,0.138 10.15,0.138 C10.4113346,0.138 10.6679987,0.17999958 10.92,0.264 C11.1720013,0.34800042 11.395999,0.47166585 11.592,0.635 C11.788001,0.79833415 11.9466661,1.00366543 12.068,1.251 C12.1893339,1.49833457 12.25,1.7853317 12.25,2.112 C12.25,2.56000224 12.114668,2.99633121 11.844,3.421 C11.573332,3.84566879 11.1486696,4.20733184 10.57,4.506 L10.857,4.84549998 L10.857,4.84549998 L11.158,5.192 C11.3633344,5.4253345 11.5733323,5.66333212 11.788,5.906 C11.9186673,5.42999762 11.9886666,4.8653366 11.998,4.212 L13.426,4.394 C13.4166666,4.91666928 13.3490006,5.40199776 13.223,5.85 C13.0969994,6.29800224 12.936001,6.70399818 12.74,7.068 C12.9640011,7.37600154 13.1646658,7.6933317 13.342,8.02 C13.5193342,8.3466683 13.6546662,8.6733317 13.748,9 L12.11,9 Z M11.088,7.25 C10.8266654,6.9233317 10.5560014,6.60600154 10.276,6.298 L9.45,5.388 L9.45,5.388 C9.24466564,5.5280007 9.07900063,5.69833233 8.953,5.899 C8.82699937,6.09966767 8.764,6.34466522 8.764,6.634 C8.764,6.95133492 8.84566585,7.2266655 9.009,7.46 C9.17233415,7.6933345 9.44999804,7.81 9.842,7.81 C10.0566677,7.81 10.2713323,7.76800042 10.486,7.684 C10.7006677,7.59999958 10.9013324,7.45533436 11.088,7.25 Z M9.38,2.308 C9.38,2.00933184 9.4499993,1.78066746 9.59,1.622 C9.7300007,1.46333254 9.9166655,1.384 10.15,1.384 C10.3366676,1.384 10.4883327,1.44699937 10.605,1.573 C10.7216672,1.69900063 10.78,1.88333212 10.78,2.126 C10.78,2.37800126 10.7006675,2.64166529 10.542,2.917 C10.3833325,3.19233471 10.1546682,3.41399916 9.856,3.582 C9.70666592,3.35799888 9.59000042,3.14100105 9.506,2.931 C9.42199958,2.72099895 9.38,2.51333436 9.38,2.308 Z"></path>
</svg>