<svg>
    <path d="M0.63,5.618 L6.006,3.364 L6.482,4.876 L2.562,6.402 L6.482,7.928 L6.006,9.44 L0.63,7.172 L0.63,5.618 Z M9.702,9.874 C8.48497246,9.77177067 7.65333422,9.34666718 7.476,9.244 L8.008,7.872 C8.87605963,8.299 10.6107827,8.66456643 11.424,8.229 C11.752647,7.9903787 11.8171181,7.55494664 11.613,7.158 C11.112281,6.45927467 9.03967602,6.1578023 8.442,5.527 C7.79099965,4.9041554 7.59875867,4.36368248 7.861,3.224 C7.93100035,2.98133212 8.31318419,1.92834608 9.73,1.656 L9.73,0.298 L11.326,0.298 L11.326,1.586 C11.7553355,1.62333352 12.6577143,1.76720376 13.244,2.034 L12.852,3.476 C12.581332,3.36399944 11.6545415,3.06929161 10.752,3.042 C9.28413233,3.01901466 9.36816712,4.22428748 9.933,4.47 C10.4978329,4.71571252 12.4458554,5.44051852 12.824,5.891 C13.4703668,6.49698859 13.6894984,7.29301297 13.426,8.299 C13.244,9.08355261 12.3234505,9.72482081 11.298,9.86 L11.298,11.358 L9.702,11.358 L9.702,9.874 Z" fill="#FD6868" transform="rotate(-90.000000)"></path>
</svg>