<svg>
    <path d="M0.63,4.618 L6.006,2.364 L6.482,3.876 L2.562,5.402 L6.482,6.928 L6.006,8.44 L0.63,6.172 L0.63,4.618 Z M9.513,6.977 C9.41505678,6.62516056 8.52625794,2.21904606 12.082,2.854 C12.0872209,0.797982418 9.79030723,1.14950493 9.177,2.238 C8.50709804,3.49652894 8.36319383,5.71772516 8.673,7.348 C8.98780009,9.11071038 10.3927184,10.0990884 13.132,9.476 L13.286,10.694 C11.0566987,11.2072663 8.44505443,10.9615052 7.588,8.111 C6.78090625,5.09377076 7.33307365,1.356 9.436,0.411 C11.0334787,-0.281240772 13.552,0.138 13.552,3.33 L13.552,8.23 C11.746,8.94136821 9.94336298,8.44599859 9.513,6.977 Z M10.794,5.542 C10.794,5.71933422 10.7266309,7.41761027 12.082,7.068 L12.082,4.268 C11.6091395,4.17524652 10.8698436,4.03983213 10.794,5.542 Z" fill="#8D68FD" transform="rotate(-90.000000)"></path>
</svg>