<svg>
    <path d="M0.63,4.618 L6.006,2.364 L6.482,3.876 L2.562,5.402 L6.482,6.928 L6.006,8.44 L0.63,6.172 L0.63,4.618 Z M10.528,3.764 L9.562,5.794 L8.246,4.856 L9.87,3.302 L7.644,2.98 L8.162,1.454 L10.122,2.546 L9.716,0.334 L11.34,0.334 L10.92,2.546 L12.908,1.482 L13.412,3.036 L11.172,3.316 L12.81,4.856 L11.494,5.808 L10.528,3.764 Z M20.426,6.186 L15.05,8.454 L14.56,6.942 L18.494,5.416 L14.56,3.89 L15.05,2.378 L20.426,4.632 L20.426,6.186 Z" fill="#6878FD" transform="rotate(-90.000000)"></path>
</svg>